<svg width="24" height="24" viewBox="0 0 24 24" fill="none" xmlns="http://www.w3.org/2000/svg">
<path d="M13.9314 12.2915C13.9241 12.6716 13.8042 13.0411 13.5867 13.353C13.3693 13.6648 13.0641 13.9051 12.71 14.0434C12.3558 14.1817 11.9686 14.2117 11.5973 14.1296C11.2261 14.0475 10.8876 13.8571 10.6247 13.5824C10.3618 13.3077 10.1864 12.9612 10.1207 12.5867C10.055 12.2122 10.1019 11.8267 10.2556 11.4789C10.4093 11.1311 10.6627 10.8368 10.9839 10.6333C11.305 10.4297 11.6793 10.3261 12.0594 10.3356C12.5645 10.3543 13.0424 10.5689 13.3919 10.9341C13.7413 11.2992 13.9348 11.7861 13.9314 12.2915Z" fill="#FFFEFB"/>
<path d="M15.3175 6.27966H8.80765C8.16351 6.27966 7.54575 6.53555 7.09027 6.99103C6.63479 7.4465 6.37891 8.06426 6.37891 8.70841V15.3647C6.37891 15.6836 6.44173 15.9994 6.56378 16.2941C6.68584 16.5888 6.86474 16.8565 7.09027 17.082C7.3158 17.3076 7.58354 17.4865 7.87821 17.6085C8.17288 17.7306 8.4887 17.7934 8.80765 17.7934H15.3175C15.6364 17.7934 15.9523 17.7306 16.2469 17.6085C16.5416 17.4865 16.8094 17.3076 17.0349 17.082C17.2604 16.8565 17.4393 16.5888 17.5614 16.2941C17.6834 15.9994 17.7462 15.6836 17.7462 15.3647V8.72041C17.7475 8.40054 17.6856 8.08357 17.5642 7.78766C17.4427 7.49174 17.2641 7.22271 17.0384 6.99597C16.8128 6.76923 16.5447 6.58924 16.2493 6.46633C15.954 6.34341 15.6374 6.27998 15.3175 6.27966ZM12.062 15.5471C11.4175 15.5616 10.7834 15.3838 10.2405 15.0364C9.69753 14.6889 9.27043 14.1876 9.01367 13.5963C8.75692 13.0051 8.68215 12.3507 8.79891 11.7168C8.91567 11.0829 9.21867 10.4981 9.66923 10.0372C10.1198 9.57619 10.6975 9.25992 11.3286 9.12872C11.9597 8.99752 12.6156 9.05734 13.2125 9.30053C13.8095 9.54373 14.3204 9.95928 14.6802 10.4941C15.0399 11.029 15.2321 11.6589 15.2323 12.3035C15.2375 12.7248 15.1596 13.1429 15.0031 13.534C14.8465 13.9251 14.6143 14.2815 14.3198 14.5828C14.0254 14.8841 13.6744 15.1243 13.2869 15.2898C12.8995 15.4552 12.4832 15.5427 12.062 15.5471ZM15.5851 9.0612C15.5059 9.06122 15.4275 9.04543 15.3545 9.01477C15.2815 8.98412 15.2154 8.9392 15.1599 8.88265C15.1045 8.82611 15.0609 8.75907 15.0317 8.68547C15.0025 8.61187 14.9883 8.53318 14.9899 8.45401C14.9899 8.29298 15.0539 8.13854 15.1677 8.02467C15.2816 7.9108 15.4361 7.84683 15.5971 7.84683C15.7581 7.84683 15.9126 7.9108 16.0264 8.02467C16.1403 8.13854 16.2043 8.29298 16.2043 8.45401C16.2067 8.53974 16.1905 8.62496 16.1569 8.70385C16.1233 8.78275 16.073 8.85344 16.0095 8.91111C15.9461 8.96877 15.8709 9.01203 15.7891 9.03794C15.7074 9.06384 15.621 9.07178 15.5359 9.0612H15.5851Z" fill="#FFFEFB"/>
<path d="M12.0599 0.000150205C8.87735 -0.0157624 5.81885 1.23323 3.55721 3.47236C1.29558 5.7115 0.0160628 8.75735 0.000150205 11.9399C-0.0157624 15.1224 1.23323 18.1809 3.47236 20.4425C5.7115 22.7042 8.75735 23.9837 11.9399 23.9996C13.5157 24.0075 15.0777 23.7049 16.5365 23.1091C17.9954 22.5134 19.3227 21.6361 20.4425 20.5274C21.5624 19.4187 22.4529 18.1003 23.0632 16.6474C23.6735 15.1945 23.9917 13.6357 23.9996 12.0599C24.0075 10.484 23.7049 8.9221 23.1091 7.46321C22.5134 6.00432 21.6361 4.67706 20.5274 3.55721C19.4187 2.43737 18.1003 1.54686 16.6474 0.936535C15.1945 0.326213 13.6357 0.00802934 12.0599 0.000150205ZM19.3473 15.2422C19.3507 15.7805 19.2471 16.3142 19.0427 16.8122C18.8382 17.3103 18.537 17.7628 18.1563 18.1435C17.7757 18.5242 17.3233 18.8256 16.8253 19.0302C16.3274 19.2348 15.7937 19.3385 15.2554 19.3353H8.86675C8.3284 19.3387 7.79474 19.2351 7.29671 19.0307C6.79868 18.8262 6.34619 18.525 5.96545 18.1443C5.58472 17.7637 5.28333 17.3113 5.07874 16.8133C4.87416 16.3154 4.77045 15.7817 4.77364 15.2434V8.85355C4.7703 8.3152 4.87384 7.78154 5.07828 7.28351C5.28272 6.78548 5.58398 6.33299 5.9646 5.95225C6.34522 5.57152 6.79763 5.27013 7.2956 5.06554C7.79357 4.86096 8.3272 4.75725 8.86555 4.76044H15.2554C15.7936 4.75726 16.3272 4.86092 16.8251 5.06543C17.323 5.26994 17.7753 5.57123 18.1559 5.95183C18.5365 6.33244 18.8378 6.78479 19.0423 7.28268C19.2468 7.78057 19.3505 8.3141 19.3473 8.85235V15.2422Z" fill="#FFFEFB"/>
</svg>
