<svg width="42" height="29" viewBox="0 0 42 29" fill="none" xmlns="http://www.w3.org/2000/svg">
<path d="M16.5714 20.7143L27.3221 14.5L16.5714 8.28571V20.7143ZM40.5171 4.495C40.7864 5.46857 40.9729 6.77357 41.0971 8.43071C41.2421 10.0879 41.3043 11.5171 41.3043 12.76L41.4286 14.5C41.4286 19.0364 41.0971 22.3714 40.5171 24.505C39.9993 26.3693 38.7979 27.5707 36.9336 28.0886C35.96 28.3579 34.1786 28.5443 31.4443 28.6686C28.7514 28.8136 26.2864 28.8757 24.0079 28.8757L20.7143 29C12.035 29 6.62857 28.6686 4.495 28.0886C2.63071 27.5707 1.42929 26.3693 0.911429 24.505C0.642143 23.5314 0.455714 22.2264 0.331429 20.5693C0.186429 18.9121 0.124286 17.4829 0.124286 16.24L0 14.5C0 9.96357 0.331429 6.62857 0.911429 4.495C1.42929 2.63071 2.63071 1.42929 4.495 0.911429C5.46857 0.642143 7.25 0.455714 9.98429 0.331428C12.6771 0.186428 15.1421 0.124286 17.4207 0.124286L20.7143 0C29.3936 0 34.8 0.331429 36.9336 0.911429C38.7979 1.42929 39.9993 2.63071 40.5171 4.495Z" fill="black"/>
</svg>
