<svg width="24" height="24" viewBox="0 0 24 24" fill="none" xmlns="http://www.w3.org/2000/svg">
<path d="M12 0C5.376 0 0 5.376 0 12C0 18.624 5.376 24 12 24C18.624 24 24 18.624 24 12C24 5.376 18.624 0 12 0ZM12 19.104C8.076 19.104 4.896 15.924 4.896 12C4.896 8.076 8.076 4.896 12 4.896C15.924 4.896 19.104 8.076 19.104 12C19.104 15.924 15.924 19.104 12 19.104ZM12 5.772C8.568 5.772 5.772 8.568 5.772 12C5.772 15.432 8.568 18.228 12 18.228C15.432 18.228 18.228 15.432 18.228 12C18.228 8.568 15.432 5.772 12 5.772ZM9.684 15.54V8.46L15.816 12L9.684 15.54Z" fill="#FFFEFB"/>
</svg>
